<?xml version="1.0" encoding="UTF-8" standalone="no"?>
<svg
   xmlns:dc="http://purl.org/dc/elements/1.1/"
   xmlns:cc="http://creativecommons.org/ns#"
   xmlns:rdf="http://www.w3.org/1999/02/22-rdf-syntax-ns#"
   xmlns:svg="http://www.w3.org/2000/svg"
   xmlns="http://www.w3.org/2000/svg"
   xmlns:sodipodi="http://sodipodi.sourceforge.net/DTD/sodipodi-0.dtd"
   xmlns:inkscape="http://www.inkscape.org/namespaces/inkscape"
   sodipodi:docname="caterpillar logo.svg"
   inkscape:version="1.0 (4035a4fb49, 2020-05-01)"
   id="svg8"
   version="1.1"
   viewBox="0 0 210 297"
   height="297mm"
   width="210mm">
  <defs
     id="defs2" />
  <sodipodi:namedview
     inkscape:window-maximized="1"
     inkscape:window-y="-8"
     inkscape:window-x="-8"
     inkscape:window-height="1009"
     inkscape:window-width="1920"
     showgrid="false"
     inkscape:document-rotation="0"
     inkscape:current-layer="g30"
     inkscape:document-units="mm"
     inkscape:cy="493.91554"
     inkscape:cx="-42.518241"
     inkscape:zoom="0.49497475"
     inkscape:pageshadow="2"
     inkscape:pageopacity="0.0"
     borderopacity="1.0"
     bordercolor="#666666"
     pagecolor="#ffffff"
     id="base" />
  <metadata
     id="metadata5">
    <rdf:RDF>
      <cc:Work
         rdf:about="">
        <dc:format>image/svg+xml</dc:format>
        <dc:type
           rdf:resource="http://purl.org/dc/dcmitype/StillImage" />
        <dc:title></dc:title>
      </cc:Work>
    </rdf:RDF>
  </metadata>
  <g
     id="layer1"
     inkscape:groupmode="layer"
     inkscape:label="Capa 1">
    <g
       transform="matrix(1.5,0,0,1.5,-229.59197,-192.24103)"
       id="g30">
      <path
         style="stroke-width:0.324139"
         d="m 7627.0133,13349.694 c -80.7106,-17.18 -137.1108,-73.256 -160.773,-158.504 -15.2345,-56.401 -16.2069,-73.256 -16.2069,-330.622 0,-262.229 0.6482,-276.167 18.1517,-336.133 12.3173,-42.786 27.876,-69.689 58.0209,-100.158 33.0622,-33.063 51.214,-43.435 103.7246,-58.021 27.2276,-7.78 119.6073,-7.456 153.966,0 80.3865,18.151 137.435,70.014 161.4213,146.51 12.9656,41.49 16.207,68.718 18.8001,154.291 l 1.9448,70.338 h -195.1317 v -66.125 c 0,-72.931 -3.8897,-99.834 -18.1518,-124.145 -11.0208,-19.124 -23.6622,-24.958 -47.0002,-22.365 -27.5518,2.593 -39.545,11.344 -52.1864,36.951 l -10.6966,21.718 v 278.759 c 0,307.608 -0.6483,297.236 20.4208,319.926 13.938,14.91 33.3863,20.42 57.3726,15.883 42.7864,-8.104 50.2416,-31.766 50.2416,-159.801 v -80.387 h 197.7248 v 60.939 c 0,33.386 -0.9724,76.821 -2.269,96.269 l -1.9448,35.655 -137.1108,103.076 -137.435,102.753 -16.8552,-0.325 c -9.4001,0 -30.145,-2.917 -46.0278,-6.482 z m 1233.9976,-74.877 -82.0072,-65.476 v -656.705 h -162.0695 v -171.794 h 518.6225 v 171.794 h -158.8281 v 787.658 l -16.8553,-0.325 h -17.1793 z m 355.5806,-414.249 v -479.726 h 453.7947 v 171.794 h -262.5526 l 0.6482,104.697 0.9725,104.372 114.4211,0.973 114.0969,0.648 v 168.552 h -230.1387 v 239.863 h 275.5182 v 168.553 h -466.7603 z m 589.9331,0 v -479.726 h 156.5592 c 199.9942,0 235.3252,4.538 285.2422,34.683 43.759,26.255 70.014,65.8 84.925,127.386 7.131,30.145 8.103,40.842 8.103,93.677 0,64.503 -2.917,82.979 -19.124,118.31 -12.317,27.228 -31.442,49.918 -58.345,70.014 -12.642,9.4 -22.042,18.152 -21.069,19.773 0.648,1.296 10.372,6.483 20.745,11.345 27.227,12.317 57.372,44.407 69.365,74.228 8.752,21.717 8.752,22.365 11.67,140.676 4.213,164.663 6.806,210.042 14.91,258.987 l 1.621,10.373 h -184.76 l -3.565,-11.994 c -7.78,-28.524 -10.049,-58.02 -12.642,-180.869 -3.241,-132.573 -4.538,-143.594 -17.827,-169.201 -6.483,-12.965 -28.849,-32.738 -45.38,-40.193 -10.696,-4.862 -21.069,-6.159 -54.455,-6.159 h -41.49 v 408.416 h -194.4834 z m 302.4214,-106.642 c 25.283,-12.317 38.897,-38.897 42.787,-84.6 4.538,-52.835 -8.752,-105.021 -30.145,-117.339 -13.938,-8.103 -49.269,-14.586 -86.545,-16.207 l -32.414,-0.972 -0.973,114.745 -0.648,114.745 46.352,-1.62 c 39.869,-0.973 48.297,-2.269 61.586,-8.752 z m 382.16,107.614 0.973,-479.077 124.793,-0.973 c 178.277,-1.621 246.994,5.511 296.588,30.145 54.131,26.579 94,86.869 107.29,162.07 9.076,49.593 8.427,147.483 -1.297,193.511 -19.124,92.379 -49.593,140.676 -105.021,167.58 -41.814,20.096 -75.849,26.255 -158.828,28.524 l -70.662,1.945 v 375.029 h -194.484 z m 286.539,-72.931 c 18.152,-9.724 33.387,-25.283 43.435,-44.731 31.117,-60.938 13.938,-172.442 -28.2,-184.76 -6.807,-1.944 -33.711,-4.538 -59.966,-5.51 l -47.972,-1.945 v 121.552 c 0,66.773 0.972,122.525 2.593,123.821 1.296,1.297 18.476,1.945 37.924,1.297 30.793,-0.972 37.924,-2.593 52.186,-9.724 z m 351.367,71.959 v -479.726 h 197.725 v 959.452 h -197.725 z m 346.829,0 v -479.726 h 187.028 l 2.269,392.856 c 1.297,215.877 2.917,393.829 3.89,395.45 0.972,1.297 55.428,2.593 121.552,2.593 h 119.607 v 168.553 h -434.346 z m 499.174,0 v -479.726 h 197.725 v 390.263 c 0,214.58 0.972,392.533 1.945,395.45 1.621,4.538 15.234,5.186 118.311,5.186 h 116.366 v 168.553 h -434.347 z m 490.098,476.808 c -4.213,-2.593 3.89,-47 56.077,-309.877 4.213,-21.393 11.344,-57.696 15.882,-81.034 15.235,-78.766 90.759,-464.492 103.401,-528.347 l 7.131,-35.655 122.2,-0.973 122.525,-0.648 1.296,7.131 c 0.973,4.214 4.862,22.69 8.428,41.49 15.559,80.71 46.676,240.511 59.966,306.311 7.779,39.221 17.827,90.435 22.365,113.449 4.538,23.338 22.042,112.8 38.897,199.345 17.179,86.546 36.628,186.38 43.759,222.036 6.807,35.655 11.993,65.476 11.021,66.448 -0.649,0.973 -44.732,1.945 -97.89,2.593 l -96.27,0.973 -14.262,-89.463 -14.262,-89.138 h -176.008 l -14.262,88.49 -14.586,88.166 -90.435,0.648 c -49.917,0.648 -92.704,-0.324 -94.973,-1.945 z m 370.816,-348.773 c 1.296,-2.593 -0.973,-22.69 -4.862,-44.732 -3.566,-21.717 -9.401,-57.696 -13.29,-80.062 -3.566,-22.365 -7.78,-48.621 -9.724,-58.345 -1.945,-9.724 -9.725,-57.697 -17.828,-106.642 -17.828,-109.559 -21.069,-115.717 -31.117,-59.317 -3.242,17.179 -12.318,68.717 -20.745,114.097 -35.007,194.483 -40.518,225.277 -40.518,232.408 v 7.455 h 68.07 c 58.02,0 68.717,-0.649 70.014,-4.862 z m 348.125,-128.035 v -479.726 h 156.559 c 169.201,0 202.587,2.593 245.373,17.503 63.208,21.718 100.808,63.207 119.608,130.953 15.558,56.724 17.503,151.697 3.565,196.752 -12.965,42.138 -36.952,75.524 -73.579,102.752 -18.152,13.29 -20.745,17.828 -11.345,20.745 45.055,14.91 82.98,58.669 91.407,105.669 1.621,9.4 4.538,77.794 6.159,151.697 1.945,80.711 5.51,153.318 8.427,181.194 2.918,25.283 4.214,47.325 3.242,48.621 -2.593,2.593 -158.828,4.538 -172.118,2.269 -8.104,-1.621 -10.697,-4.538 -13.938,-14.262 -4.862,-15.559 -9.076,-86.545 -11.669,-203.235 -2.269,-100.808 -5.186,-120.904 -20.097,-146.511 -9.724,-16.855 -23.986,-29.173 -42.462,-36.952 -11.345,-4.862 -22.366,-6.159 -56.076,-6.159 h -41.814 v 194.16 c 0,106.641 -0.972,198.697 -1.945,204.207 l -1.945,10.049 h -187.352 z m 301.125,-105.021 c 14.586,-7.78 24.959,-19.449 33.387,-37.276 6.158,-13.29 7.131,-20.421 7.131,-68.394 0,-50.565 -0.325,-54.455 -8.428,-71.634 -5.51,-11.994 -11.993,-20.421 -19.448,-24.959 -15.883,-9.724 -47.325,-16.207 -86.87,-17.504 l -34.034,-0.972 -1.621,56.724 c -0.972,31.118 -1.296,81.683 -0.648,112.477 0.972,48.62 1.945,55.751 6.483,57.372 2.917,0.973 25.282,1.297 49.269,0.648 34.683,-0.648 46.027,-1.944 54.779,-6.482 z m -4895.7967,297.883 c -166.9316,-131.276 -243.1043,-189.621 -247.6422,-189.621 -2.9173,0 -17.8277,10.048 -33.0622,22.042 -15.5587,11.993 -48.945,37.924 -74.2279,57.372 -25.607,19.773 -77.7934,59.966 -116.3659,89.787 -38.2484,29.821 -70.3382,53.807 -70.6623,53.159 -0.9725,-0.973 34.6828,-160.773 54.1312,-241.808 5.1862,-22.366 30.7932,-133.221 56.7243,-246.346 25.9312,-113.124 47.9726,-208.421 48.945,-211.339 1.6207,-5.51 11.0208,-5.834 140.3523,-5.834 h 138.7315 l 3.5655,13.938 c 5.1863,19.448 9.4001,38.248 44.4071,193.511 16.8552,75.848 32.0898,143.594 34.0346,150.725 3.2414,13.613 15.5587,67.421 42.4622,188 8.7518,39.221 21.0691,93.676 27.5518,121.228 6.1587,27.228 11.0208,49.918 10.3725,50.566 -0.6483,0.324 -27.2277,-20.097 -59.3175,-45.38 z m -186.3799,-234.028 c 0,-5.186 -27.2277,-137.435 -48.2968,-232.732 -10.3724,-47 -15.8828,-51.214 -22.0414,-16.207 -1.9449,12.642 -7.4552,42.462 -12.3173,66.449 -20.7449,106.317 -34.0346,178.6 -34.0346,184.111 0,2.917 13.938,3.889 58.345,3.889 53.483,0 58.3451,-0.324 58.3451,-5.51 z"
         id="path10" />
      <path
         style="stroke-width:0.324139"
         sodipodi:nodetypes="sssscssscsssccsssscsss"
         d="m 8454.8646,13051.81 c 0,-4.862 -2.269,-6.483 -8.1035,-6.483 -5.1862,0 -8.1034,-1.945 -8.1034,-4.862 0,-2.917 -2.9173,-4.862 -6.807,-4.862 -3.8896,0 -7.4552,-2.593 -8.4276,-6.483 -0.9724,-3.565 -4.5379,-6.483 -7.7793,-6.483 -3.5656,0 -6.1587,-2.269 -6.1587,-4.862 0,-2.917 -2.9172,-4.862 -6.8069,-4.862 -3.8897,0 -7.4552,-2.593 -8.4276,-6.483 -0.9724,-3.565 -4.538,-6.482 -8.1035,-6.482 -3.5655,0 -7.131,-2.918 -8.1035,-6.483 -0.9724,-3.566 -4.5379,-6.483 -7.7793,-6.483 -3.2414,0 -7.1311,-1.945 -8.4276,-4.214 -1.2966,-2.593 -5.1862,-5.186 -8.1035,-6.483 -3.2414,-0.972 -5.8345,-4.213 -5.8345,-7.131 0,-2.593 -2.9172,-4.862 -6.4828,-4.862 -4.8621,0 -6.4828,-2.269 -6.4828,-8.103 0,-4.538 1.2966,-8.104 2.9173,-8.104 1.9448,0 17.5035,11.345 35.007,24.959 65.8003,51.538 104.6969,82.655 104.6969,83.952 0,0.648 -5.1862,1.297 -11.3448,1.297 -9.0759,0 -11.3449,-1.297 -11.3449,-6.483 z"
         id="path12" />
      <path
         style="stroke-width:0.324139"
         sodipodi:nodetypes="ccccccsc"
         d="m 7834.1382,13334.459 c 3.5655,-3.565 84.6003,-66.773 179.8972,-140.676 95.2969,-74.228 206.1525,-160.449 246.3457,-191.891 71.6348,-55.752 72.9313,-56.724 80.7107,-51.862 4.2138,2.917 50.8898,39.221 103.7245,80.387 104.3728,82.007 389.9393,306.635 392.2083,308.58 0.6483,0.648 -225.9249,1.297 -504.0363,1.297 -491.0708,0 -505.0088,-0.325 -498.8501,-5.835 z"
         fill="#ffc400"
         id="path16" />
    </g>
  </g>
</svg>
